<svg width="78" height="78" viewBox="0 0 78 78" fill="none" xmlns="http://www.w3.org/2000/svg">
<path d="M39.8678 2.4375H30.0073M34.9375 2.4375V10.8875M16.016 8.23225L12.532 11.7195M12.532 11.7195L9.04475 15.2035M12.532 11.7195L18.5055 17.693M3.25 29.1948V39.0553M3.25 34.125H11.7M9.04475 53.0465L12.532 56.5305M12.532 56.5305L16.016 60.0178M12.532 56.5305L18.5055 50.557M60.8303 15.2035L57.343 11.7195M57.343 11.7195L53.859 8.23225M57.343 11.7195L51.3695 17.693M30.0073 32.0125C31.3148 32.0125 32.5689 31.4931 33.4935 30.5685C34.4181 29.6439 34.9375 28.3898 34.9375 27.0823C34.9375 25.7747 34.4181 24.5206 33.4935 23.596C32.5689 22.6714 31.3148 22.152 30.0073 22.152C28.6997 22.152 27.4456 22.6714 26.521 23.596C25.5964 24.5206 25.077 25.7747 25.077 27.0823C25.077 28.3898 25.5964 29.6439 26.521 30.5685C27.4456 31.4931 28.6997 32.0125 30.0073 32.0125Z" stroke="white" stroke-opacity="0.93" stroke-width="1.5" stroke-linecap="round" stroke-linejoin="round"/>
<path d="M56.9985 26.8127C55.7739 23.12 53.6418 19.7939 50.7977 17.1394C47.9536 14.4848 44.4886 12.5869 40.7203 11.6195C36.9521 10.6521 33.0013 10.6463 29.2302 11.6026C25.4592 12.5589 21.9886 14.4467 19.1367 17.0929C16.2848 19.739 14.1429 23.0589 12.9075 26.7479C11.6721 30.437 11.3826 34.3772 12.0657 38.2072C12.7488 42.0372 14.3825 45.6344 16.8171 48.6689C19.2517 51.7034 22.4092 54.0781 26 55.5752" stroke="white" stroke-opacity="0.93" stroke-width="1.5" stroke-linecap="round" stroke-linejoin="round"/>
<path d="M55.25 48.75V63.375M47.9375 56.0625H62.5625M74.75 51.1875C74.7603 56.8634 72.8334 62.373 69.2876 66.8051C65.7419 71.2373 60.7898 74.3267 55.25 75.5625C49.7102 74.3267 44.7581 71.2373 41.2123 66.8051C37.6666 62.373 35.7396 56.8634 35.75 51.1875V43.875C35.75 42.5821 36.2636 41.3421 37.1778 40.4279C38.0921 39.5136 39.3321 39 40.625 39H69.875C71.1679 39 72.4079 39.5136 73.3221 40.4279C74.2364 41.3421 74.75 42.5821 74.75 43.875V51.1875Z" stroke="white" stroke-opacity="0.93" stroke-width="1.5" stroke-linecap="round" stroke-linejoin="round"/>
</svg>
